<svg width="200" height="49.313" viewBox="0 0 200 50" version="1.1" xmlns="http://www.w3.org/2000/svg" xmlns:xlink="http://www.w3.org/1999/xlink" xml:space="preserve" xmlns:serif="http://www.serif.com/" style="fill-rule:evenodd;clip-rule:evenodd;stroke-linejoin:round;stroke-miterlimit:2;">
    <rect id="Artboard1" x="0" y="0" width="200" height="49.313" style="fill:none;"/>
    <g id="Artboard11" serif:id="Artboard1">
        <g id="LoveIt-ShipIt" serif:id="LoveIt;ShipIt" transform="matrix(4.31509,0,0,4.31509,-13.7271,-10.1392)">
            <g id="SHIP-IT" serif:id="SHIP IT" transform="matrix(0.284328,0,0,0.284328,-6.99391,-2.86115)">
                <g transform="matrix(0.993703,0,0,0.852424,28.7098,18.7067)">
                    <path d="M85.47,0.029L171.167,0L171.167,35L85.47,35.029L85.47,0.029Z" style="fill-rule:nonzero;"/>
                </g>
                <g transform="matrix(1.47933,0,0,1.21792,-29.1843,19.8709)">
                    <text x="105.763px" y="15.597px" style="font-family:'ArialMT', 'Arial', sans-serif;font-size:12px;fill:rgb(239,231,219);">SHIP<tspan x="133.554px 136.888px " y="15.597px 15.597px "> I</tspan>T</text>
                </g>
            </g>
            <g id="LOVE-IT" serif:id="LOVE IT" transform="matrix(0.280325,-0.0475388,0.0475388,0.280325,-7.29259,2.16089)">
                <g transform="matrix(0.962131,0.013956,0.0134982,0.853261,31.923,19.8496)">
                    <path d="M3.221,3.054C11.968,2.434 18.863,2.555 26.249,2.499C31.592,2.459 39.651,1.322 46.077,1.274C62.603,1.15 74.619,1.251 81.368,1.92C81.95,1.978 86.499,2.12 86.499,2.12C86.214,1.057 86.047,31.676 86.408,31.65C85.971,31.386 78.238,31.389 74.233,31.261C50.61,29.235 2.618,30.207 0.099,31.367C0.32,28.191 0.644,26.906 0.651,23.418C0.67,18.737 0.681,13.062 0.851,8.511C0.932,6.347 1.623,3.682 3.221,3.054Z" style="fill:rgb(239,231,219);fill-rule:nonzero;"/>
                </g>
                <g id="LOVEIT" transform="matrix(1.4001,0.0122667,0.0238713,1.12034,-106.651,20.345)">
                    <g transform="matrix(12,0,0,12,105.763,15.5974)">
                        <path d="M0.093,0.009C0.093,0.009 0.09,-0.727 0.093,-0.78L0.171,-0.786C0.155,-0.608 0.151,-0.162 0.16,-0.079C0.281,-0.076 0.399,-0.078 0.514,-0.082L0.515,-0.001L0.093,0.009Z" style="fill-rule:nonzero;"/>
                    </g>
                    <g transform="matrix(11.8497,-1.5906,1.33448,13.0474,112.944,15.9968)">
                        <path d="M0.009,-0.304C0.009,-0.431 0.054,-0.573 0.154,-0.655C0.301,-0.775 0.54,-0.721 0.624,-0.552C0.655,-0.49 0.669,-0.425 0.671,-0.356C0.673,-0.264 0.654,-0.163 0.593,-0.088C0.553,-0.037 0.533,-0.018 0.464,0.015C0.412,0.038 0.305,0.024 0.248,0.011C0.095,-0.024 0.009,-0.157 0.009,-0.304ZM0.104,-0.285C0.104,-0.156 0.188,-0.046 0.334,-0.047C0.371,-0.047 0.406,-0.055 0.44,-0.069C0.468,-0.082 0.505,-0.105 0.526,-0.129C0.577,-0.191 0.585,-0.281 0.584,-0.352C0.583,-0.427 0.552,-0.513 0.502,-0.571C0.404,-0.686 0.221,-0.64 0.15,-0.52C0.116,-0.464 0.104,-0.349 0.104,-0.285Z" style="fill-rule:nonzero;"/>
                    </g>
                    <g transform="matrix(12,0,0,12,121.771,15.5974)">
                        <path d="M0.289,0.008L-0.004,-0.747L0.069,-0.748C0.035,-0.801 0.256,-0.247 0.324,-0.098C0.316,-0.06 0.535,-0.714 0.557,-0.709L0.619,-0.711C0.526,-0.489 0.451,-0.231 0.363,-0.002L0.289,0.008Z" style="fill-rule:nonzero;"/>
                    </g>
                    <g transform="matrix(12,3.27713e-16,0,11.8071,129.938,15.6747)">
                        <path d="M0.088,-0.001C0.098,-0.222 0.1,-0.452 0.09,-0.721C0.264,-0.711 0.586,-0.716 0.586,-0.716L0.582,-0.639C0.453,-0.634 0.324,-0.636 0.165,-0.64C0.168,-0.534 0.169,-0.456 0.168,-0.403C0.316,-0.402 0.553,-0.391 0.568,-0.395C0.568,-0.395 0.577,-0.351 0.573,-0.331C0.576,-0.331 0.273,-0.336 0.174,-0.328C0.172,-0.239 0.166,-0.16 0.165,-0.076C0.165,-0.072 0.608,-0.074 0.61,-0.074L0.607,0.007C0.591,0.007 0.356,0.002 0.088,-0.001Z" style="fill-rule:nonzero;stroke:black;stroke-width:0.01px;"/>
                    </g>
                    <g transform="matrix(12,0,0,12,141.112,15.5974)">
                        <path d="M0.091,0.022L0.097,-0.713L0.175,-0.706L0.178,0.026L0.091,0.022Z" style="fill-rule:nonzero;"/>
                    </g>
                    <g transform="matrix(12,0,0,12,144.446,15.5974)">
                        <path d="M0.268,0.042L0.259,-0.631C0.18,-0.632 0.097,-0.642 0.026,-0.64L0.027,-0.705C0.108,-0.689 0.571,-0.684 0.565,-0.691L0.563,-0.64C0.483,-0.641 0.409,-0.635 0.335,-0.633L0.343,0.045L0.268,0.042Z" style="fill-rule:nonzero;"/>
                    </g>
                </g>
                <g transform="matrix(0.158136,0.0112289,-0.00745506,0.144727,32.6336,13.7629)">
                    <path d="M531.064,83.783C539.919,67.514 557.63,67.514 566.486,75.648C575.341,83.783 575.341,100.051 566.486,116.319C560.287,128.521 544.347,140.722 531.064,148.856C517.78,140.722 501.84,128.521 495.642,116.319C486.786,100.051 486.786,83.783 495.642,75.648C504.497,67.514 522.208,67.514 531.064,83.783Z" style="fill:rgb(196,57,57);stroke:rgb(199,61,61);stroke-width:0.44px;stroke-linecap:round;stroke-linejoin:miter;stroke-miterlimit:10;"/>
                </g>
            </g>
        </g>
    </g>
</svg>
