<?xml version="1.0" encoding="UTF-8" standalone="no"?>
<!DOCTYPE svg PUBLIC "-//W3C//DTD SVG 1.1//EN" "http://www.w3.org/Graphics/SVG/1.1/DTD/svg11.dtd">
<svg width="100%" height="100%" viewBox="0 0 964 238" version="1.1" xmlns="http://www.w3.org/2000/svg" xmlns:xlink="http://www.w3.org/1999/xlink" xml:space="preserve" xmlns:serif="http://www.serif.com/" style="fill-rule:evenodd;clip-rule:evenodd;stroke-linecap:round;stroke-miterlimit:10;">
    <g id="Artboard" transform="matrix(19.2766,0,0,16.1135,0,0)">
        <rect x="0" y="0" width="50" height="14.748" style="fill:none;"/>
        <clipPath id="_clip1">
            <rect x="0" y="0" width="50" height="14.748"/>
        </clipPath>
        <g clip-path="url(#_clip1)">
            <g id="LoveIt-ShipIt" serif:id="LoveIt;ShipIt" transform="matrix(1.07877,0,0,1.29054,-3.43178,-3.03237)">
                <g id="SHIP-IT" serif:id="SHIP IT" transform="matrix(0.284328,0,0,0.284328,-6.99391,-2.86115)">
                    <g transform="matrix(0.993703,0,0,0.852424,28.7098,18.7067)">
                        <path d="M85.47,0.029L171.167,0L171.167,35L85.47,35.029L85.47,0.029Z" style="fill-rule:nonzero;"/>
                    </g>
                    <g transform="matrix(1.47933,0,0,1.21792,-29.1843,19.8709)">
                        <text x="105.763px" y="15.597px" style="font-family:'ArialMT', 'Arial', sans-serif;font-size:12px;fill:rgb(239,231,219);">SHIP<tspan x="133.554px 136.888px " y="15.597px 15.597px "> I</tspan>T</text>
                    </g>
                </g>
                <g id="LOVE-IT" serif:id="LOVE IT" transform="matrix(0.280325,-0.0475388,0.0475388,0.280325,-7.29259,2.16089)">
                    <g transform="matrix(0.962131,0.013956,0.0134982,0.853261,31.923,19.8496)">
                        <path d="M3.221,3.054C11.968,2.434 18.863,2.555 26.249,2.499C31.592,2.459 39.651,1.322 46.077,1.274C62.603,1.15 74.619,1.251 81.368,1.92C81.95,1.978 86.499,2.12 86.499,2.12C86.214,1.057 86.047,31.676 86.408,31.65C85.971,31.386 78.238,31.389 74.233,31.261C50.61,29.235 2.618,30.207 0.099,31.367C0.32,28.191 0.644,26.906 0.651,23.418C0.67,18.737 0.681,13.062 0.851,8.511C0.932,6.347 1.623,3.682 3.221,3.054Z" style="fill:rgb(239,231,219);fill-rule:nonzero;"/>
                    </g>
                    <g id="LOVEIT" transform="matrix(1.4001,0.0122667,0.0238713,1.12034,-106.651,20.345)">
                        <g transform="matrix(12,0,0,12,105.763,15.5974)">
                            <path d="M0.093,0.009C0.093,0.009 0.09,-0.727 0.093,-0.78L0.171,-0.786C0.155,-0.608 0.151,-0.162 0.16,-0.079C0.281,-0.076 0.399,-0.078 0.514,-0.082L0.515,-0.001L0.093,0.009Z" style="fill-rule:nonzero;"/>
                        </g>
                        <g transform="matrix(11.8497,-1.5906,1.33448,13.0474,112.944,15.9968)">
                            <path d="M0.009,-0.304C0.009,-0.431 0.054,-0.573 0.154,-0.655C0.301,-0.775 0.54,-0.721 0.624,-0.552C0.655,-0.49 0.669,-0.425 0.671,-0.356C0.673,-0.264 0.654,-0.163 0.593,-0.088C0.553,-0.037 0.533,-0.018 0.464,0.015C0.412,0.038 0.305,0.024 0.248,0.011C0.095,-0.024 0.009,-0.157 0.009,-0.304ZM0.104,-0.285C0.104,-0.156 0.188,-0.046 0.334,-0.047C0.371,-0.047 0.406,-0.055 0.44,-0.069C0.468,-0.082 0.505,-0.105 0.526,-0.129C0.577,-0.191 0.585,-0.281 0.584,-0.352C0.583,-0.427 0.552,-0.513 0.502,-0.571C0.404,-0.686 0.221,-0.64 0.15,-0.52C0.116,-0.464 0.104,-0.349 0.104,-0.285Z" style="fill-rule:nonzero;"/>
                        </g>
                        <g transform="matrix(12,0,0,12,121.771,15.5974)">
                            <path d="M0.289,0.008L-0.004,-0.747L0.069,-0.748C0.035,-0.801 0.256,-0.247 0.324,-0.098C0.316,-0.06 0.535,-0.714 0.557,-0.709L0.619,-0.711C0.526,-0.489 0.451,-0.231 0.363,-0.002L0.289,0.008Z" style="fill-rule:nonzero;"/>
                        </g>
                        <g transform="matrix(12,3.27713e-16,0,11.8071,129.938,15.6747)">
                            <path d="M0.088,-0.001C0.098,-0.222 0.1,-0.452 0.09,-0.721C0.264,-0.711 0.586,-0.716 0.586,-0.716L0.582,-0.639C0.453,-0.634 0.324,-0.636 0.165,-0.64C0.168,-0.534 0.169,-0.456 0.168,-0.403C0.316,-0.402 0.553,-0.391 0.568,-0.395C0.568,-0.395 0.577,-0.351 0.573,-0.331C0.576,-0.331 0.273,-0.336 0.174,-0.328C0.172,-0.239 0.166,-0.16 0.165,-0.076C0.165,-0.072 0.608,-0.074 0.61,-0.074L0.607,0.007C0.591,0.007 0.356,0.002 0.088,-0.001Z" style="fill-rule:nonzero;"/>
                            <path d="M0.17,-0.082C0.172,-0.082 0.175,-0.082 0.178,-0.082C0.249,-0.079 0.608,-0.081 0.61,-0.081C0.613,-0.081 0.615,-0.078 0.615,-0.074L0.612,0.007C0.612,0.011 0.609,0.014 0.607,0.014C0.591,0.014 0.356,0.009 0.088,0.006C0.086,0.006 0.085,0.005 0.084,0.004C0.083,0.002 0.083,0.001 0.083,-0.001C0.093,-0.222 0.095,-0.451 0.085,-0.72C0.085,-0.722 0.085,-0.724 0.086,-0.725C0.087,-0.726 0.089,-0.727 0.09,-0.727C0.264,-0.718 0.586,-0.723 0.586,-0.723C0.587,-0.723 0.588,-0.722 0.589,-0.721C0.59,-0.72 0.591,-0.718 0.591,-0.716L0.587,-0.639C0.587,-0.635 0.585,-0.633 0.582,-0.633C0.455,-0.628 0.327,-0.629 0.171,-0.633C0.173,-0.535 0.174,-0.461 0.173,-0.41C0.321,-0.408 0.552,-0.397 0.567,-0.401C0.569,-0.402 0.572,-0.4 0.573,-0.397C0.573,-0.397 0.581,-0.352 0.578,-0.331C0.578,-0.33 0.578,-0.328 0.577,-0.327C0.577,-0.327 0.576,-0.325 0.573,-0.325C0.573,-0.325 0.57,-0.325 0.565,-0.325C0.518,-0.325 0.272,-0.329 0.179,-0.322C0.177,-0.238 0.171,-0.162 0.17,-0.082ZM0.58,-0.71C0.539,-0.709 0.257,-0.706 0.095,-0.714C0.105,-0.45 0.103,-0.224 0.093,-0.007C0.343,-0.004 0.564,0 0.602,0.001L0.604,-0.068C0.561,-0.068 0.244,-0.066 0.177,-0.069C0.169,-0.069 0.164,-0.07 0.163,-0.07C0.16,-0.072 0.16,-0.075 0.16,-0.076C0.161,-0.16 0.167,-0.239 0.169,-0.328C0.169,-0.332 0.171,-0.334 0.174,-0.335C0.263,-0.342 0.517,-0.338 0.566,-0.338L0.569,-0.338C0.57,-0.353 0.566,-0.378 0.564,-0.388C0.526,-0.386 0.308,-0.396 0.168,-0.397C0.165,-0.397 0.163,-0.4 0.163,-0.403C0.164,-0.456 0.163,-0.534 0.16,-0.639C0.16,-0.641 0.161,-0.643 0.162,-0.644C0.163,-0.645 0.164,-0.646 0.166,-0.646C0.322,-0.642 0.45,-0.641 0.577,-0.645L0.58,-0.71ZM0.17,-0.077L0.17,-0.076C0.17,-0.076 0.17,-0.077 0.17,-0.077ZM0.569,-0.329C0.569,-0.328 0.57,-0.325 0.572,-0.325C0.571,-0.325 0.57,-0.326 0.569,-0.327C0.569,-0.328 0.569,-0.328 0.569,-0.329Z"/>
                        </g>
                        <g transform="matrix(12,0,0,12,141.112,15.5974)">
                            <path d="M0.091,0.022L0.097,-0.713L0.175,-0.706L0.178,0.026L0.091,0.022Z" style="fill-rule:nonzero;"/>
                        </g>
                        <g transform="matrix(12,0,0,12,144.446,15.5974)">
                            <path d="M0.268,0.042L0.259,-0.631C0.18,-0.632 0.097,-0.642 0.026,-0.64L0.027,-0.705C0.108,-0.689 0.571,-0.684 0.565,-0.691L0.563,-0.64C0.483,-0.641 0.409,-0.635 0.335,-0.633L0.343,0.045L0.268,0.042Z" style="fill-rule:nonzero;"/>
                        </g>
                    </g>
                    <g transform="matrix(0.158136,0.0112289,-0.00745506,0.144727,32.6336,13.7629)">
                        <path d="M531.064,83.783C539.919,67.514 557.63,67.514 566.486,75.648C575.341,83.783 575.341,100.051 566.486,116.319C560.287,128.521 544.347,140.722 531.064,148.856C517.78,140.722 501.84,128.521 495.642,116.319C486.786,100.051 486.786,83.783 495.642,75.648C504.497,67.514 522.208,67.514 531.064,83.783Z" style="fill:rgb(196,57,57);stroke:rgb(199,61,61);stroke-width:0.44px;"/>
                    </g>
                </g>
                <g id="Layer1">
                </g>
            </g>
        </g>
    </g>
</svg>
